<svg xmlns="http://www.w3.org/2000/svg" width="714.422" height="642.309" viewBox="0 0 714.422 642.309"><defs><style>.a{fill:#fff;stroke:rgba(0,0,0,0);opacity:0.08;}</style></defs><path class="a" d="M471.889,641.309a243.556,243.556,0,0,1-42.3-3.709,240.354,240.354,0,0,1-125.379-64.048L0,279.776l11.475-45.949,10.7-42.96,8.241-33.035c4.175-3.384,8.535-6.73,13.152-10.274,5.631-4.322,11.454-8.792,17.425-13.7,6.493-5.3,13.424-10.583,21.814-16.641l-15.1,60.592L56.24,223.763l-10.71,42.95L274.548,487.874l14.829-15.356c-.519-8.079-.66-16.161-.419-24.023a240.2,240.2,0,0,1,54.185-144.842c4.271-5.234,8.8-10.336,13.46-15.163,4.92-5.095,9.992-9.909,15.075-14.311a240.452,240.452,0,0,1,141.8-58.817c5.622-.388,11.349-.585,17.023-.585,2.545,0,5.122.04,7.658.118l14.828-15.356L346.361,0h59.056L639.652,226.2a240.353,240.353,0,0,1,68.384,123.067,243.129,243.129,0,0,1,5.183,58.983c-.018.976-.061,1.986-.128,3a241.141,241.141,0,0,1-6.9,47.239l-30.749-29.694c-.157-.138-16.1-14.158-18.1-15.682a120.943,120.943,0,0,0-55.327-21.2l-.056-.007-.245-.029-.023,0-.049-.006h-.008c-.315-.036-.612-.071-.923-.1,1.349.5,2.5.952,3.529,1.394a.056.056,0,0,1,.035.013,120.717,120.717,0,0,1,24.786,18.466c1.3,1.26,2.521,2.491,3.616,3.658a120.161,120.161,0,0,1,12.217,15.04.147.147,0,0,1,.05.07,120.248,120.248,0,0,1,16.7,36.006l-.013.013a121.075,121.075,0,0,1-6.229,81.73,116.356,116.356,0,0,1-10.365,18.5l-.013.012a117.022,117.022,0,0,1-18.12,11,121.378,121.378,0,0,1-81.1,9.167l-.014.013a119.663,119.663,0,0,1-36.769-15.442l-.025-.024a120.311,120.311,0,0,1-15.053-11.221c-1.555-1.376-3.032-2.74-4.392-4.053a121.125,121.125,0,0,1-19.4-24.244l-.013-.023-.01-.018-.006-.011a1,1,0,0,1-.059-.124c-.953-2.111-1.821-4.272-2.58-6.422.085.83.185,1.691.3,2.559a120.681,120.681,0,0,0,32.139,67.362c1.04,1.1,2.1,2.165,3.137,3.172.183.2.374.384.588.59l.024.024c1.4,1.352,2.686,2.538,3.927,3.627l30.54,29.492a240.836,240.836,0,0,1-48.233,8.536c-.6.057-1.222.1-1.839.14C482.7,641.127,477.257,641.309,471.889,641.309Zm58.842-385.07a202.3,202.3,0,0,0-31.423,2.469c-1.306.194-2.6.419-4.129.7a199.566,199.566,0,0,0-93.4,43.839,198.36,198.36,0,0,0-28.533,29.476,199.645,199.645,0,0,0-40.87,95.275c-.254,1.7-.459,3.271-.626,4.792a200.446,200.446,0,0,0,.571,51.995L302.9,515.247l30.271,29.233a198.939,198.939,0,0,0,111.426,54.31c2.439.351,4.868.633,7.348.915a160.777,160.777,0,0,1-25.259-75.242c-.038-.363-.066-.733-.093-1.09v-.012c-.014-.189-.029-.378-.044-.569a161.913,161.913,0,0,1,6.171-56.03,159.961,159.961,0,0,1,25.949-51.554L493.6,448.946a81.957,81.957,0,0,0,.66,41.415,81.131,81.131,0,0,0,21.889,36.657,82.111,82.111,0,0,0,13.236,10.391,81.418,81.418,0,0,0,43.356,12.475,81.562,81.562,0,0,0,42.546-11.943,84,84,0,0,0,4.6-9.543,81.552,81.552,0,0,0-8.265-76.477A81.579,81.579,0,0,0,522.1,419.436l-34.777-33.584a160.663,160.663,0,0,1,100.065-34.813c2.564,0,5.164.062,7.727.184,2.585.113,5.193.3,7.753.553a162.191,162.191,0,0,1,24.438,4.245,159.4,159.4,0,0,1,43.829,18.426c-.333-2.685-.725-5.3-1.2-8a198.767,198.767,0,0,0-58.325-110.3l-30.271-29.232-29.408,30.453A200.079,200.079,0,0,0,530.731,256.238Zm-280.5,156.814L88.762,257.119l11.458-45.966L229.934,336.418a319.917,319.917,0,0,1,53.611-88.367L128.381,98.211l3.993-16.029c5-3.659,9.692-7.177,14.348-10.754l1.172-.829,8.443-2.42L312.092,218.59a319.75,319.75,0,0,1,85.69-55.964L267.1,36.427l45.527-13.065L475.24,180.4a280.015,280.015,0,0,0-134.156,66.191c-5.139,4.569-10.279,9.511-15.278,14.688-4.49,4.649-8.961,9.612-13.291,14.75a278.733,278.733,0,0,0-51.008,90.881,282.7,282.7,0,0,0-11.271,46.144Z" transform="translate(0.555 0.5)"/></svg>