<svg xmlns="http://www.w3.org/2000/svg" width="152.509" height="171.111" viewBox="0 0 152.509 171.111"><defs><style>.a{fill:#fff;}</style></defs><g transform="matrix(0.848, 0.53, -0.53, 0.848, -166.731, -2064.198)"><path class="a" d="M1118.391,349.863V391.15a51.143,51.143,0,0,0-25.716-9.227q-1.916-.146-3.868-.144c-1.218,0-2.428.044-3.624.125a51.183,51.183,0,0,0-25.9,9.2v-41l7.492-4.326v32.934a58.46,58.46,0,0,1,18.411-4.168V335.154l3.865-2.232,3.628,2.095v39.545a58.433,58.433,0,0,1,18.224,4.158V345.54Z" transform="translate(256.121 1305.202)"/><path class="a" d="M1117.705,327.2l-7.091-4.094-7.492-4.324-6.868-3.967-7.492-4.324-.05-.028h0l-3.812-2.2-3.677-2.124-3.815,2.2-3.677,2.123h0l-7.487,4.324-7.244,4.182-7.492,4.324-7,4.044-7.492,4.322V408.9a43.908,43.908,0,0,0,7.492,24.6,44.359,44.359,0,0,0,7,8.084c.084.077.168.152.252.224a43.88,43.88,0,0,0,7.24,5.254V439.3c-.015-.323-.021-.646-.021-.976,0-.052,0-.105,0-.159,0-.27.007-.544.019-.814a22.044,22.044,0,0,1,4.772-12.769q.149-.186.3-.364c-.187.373-.36.762-.516,1.154a.3.3,0,0,0-.012.034,22.07,22.07,0,0,0-.724,5.624c0,.364.009.731.025,1.091a21.84,21.84,0,0,0,.435,3.4v.006a21.908,21.908,0,0,0,2.636,6.79h0a22.156,22.156,0,0,0,11.493,9.491,21.278,21.278,0,0,0,3.743.986h0a21.154,21.154,0,0,0,3.746-.986,22.071,22.071,0,0,0,11.528-9.551h0a21.983,21.983,0,0,0,2.612-6.762.028.028,0,0,0,0-.015,21.847,21.847,0,0,0,.426-3.513c.015-.311.022-.625.022-.939a21.994,21.994,0,0,0-.719-5.6.011.011,0,0,0,0-.006c-.081-.214-.171-.429-.265-.641.05.063.1.125.146.19a22.089,22.089,0,0,1,4.234,9.958c.056.469.237,4.368.237,4.368v7.807a43.951,43.951,0,0,0,7.082-5.086q.21-.177.41-.364a44.382,44.382,0,0,0,7.091-8.164,43.907,43.907,0,0,0,7.492-24.6V331.524Zm0,81.811a36.417,36.417,0,0,1-7.091,21.656c-.29.4-.588.787-.9,1.172a29.133,29.133,0,0,0-3.14-8.1,29.58,29.58,0,0,0-2.543-3.749q-.439-.555-.911-1.089a29.365,29.365,0,0,0-18.225-9.768v8.83a14.9,14.9,0,0,1-1.909,26.671,15.3,15.3,0,0,1-1.837.607,14.89,14.89,0,0,1-3.747-27.278V409.1a29.369,29.369,0,0,0-18.209,9.429c-.069.078-.137.152-.2.23a29.365,29.365,0,0,0-6.68,12.864c-.274-.357-.547-.715-.812-1.082a36.44,36.44,0,0,1-7-21.529v-7.685h7.736a36.6,36.6,0,0,1,6.758-6.672q.35-.27.709-.525a36.356,36.356,0,0,1,17.7-6.718,36.2,36.2,0,0,1,7.492.009,36.334,36.334,0,0,1,17.61,6.709c.208.149.413.3.615.454a36.67,36.67,0,0,1,6.852,6.743h7.732Zm-3.9-14.883q-1.516-1.669-3.193-3.183a43.915,43.915,0,0,0-25.718-11.167q-1.875-.168-3.792-.165c-1.247,0-2.478.053-3.7.155a43.941,43.941,0,0,0-25.9,11.257c-1.082.982-2.117,2.021-3.1,3.1h-3.9V335.983l7-4.042,7.492-4.324,14.73-8.506,3.68-2.126,3.812-2.2v0l.05.031h0l3.627,2.1,3.865,2.229,14.36,8.291v0l7.492,4.324,7.091,4.095v58.276Z" transform="translate(264.157 1314.866)"/></g></svg>