<svg xmlns="http://www.w3.org/2000/svg" width="340.469" height="86.438" viewBox="0 0 340.469 86.438"><defs><style>.a{fill:#122a80;}.b{fill:#ff8000;}.c{fill:#2250f8;}</style></defs><g transform="translate(-45.164 -26)"><g transform="translate(-182.719 -267.134)"><g transform="translate(291.719 317.074)"><path class="a" d="M232.765,381.374a12.079,12.079,0,0,0,9.864-4.774l5.247,5.4q-6.244,7.032-14.717,7.031a19.154,19.154,0,0,1-13.957-5.352,19.384,19.384,0,0,1,.105-27.126,18.821,18.821,0,0,1,13.668-5.457,19.373,19.373,0,0,1,15.111,6.874L243,363.745a11.927,11.927,0,0,0-9.654-4.827,11.253,11.253,0,0,0-7.9,3.017,10.511,10.511,0,0,0-3.279,8.133,11.1,11.1,0,0,0,3.1,8.211A10.215,10.215,0,0,0,232.765,381.374Z" transform="translate(-203.719 -351.1)"/><path class="a" d="M339.049,390l-3.41-7.922H320.265L316.855,390h-8.71l15.846-36.675h7.922L347.759,390Zm-11.071-25.762-4.617,10.651h9.182Z" transform="translate(-266.145 -352.489)"/><path class="a" d="M428.118,359.259a3.164,3.164,0,0,0-1.181,2.571,2.906,2.906,0,0,0,1.443,2.545q1.443.944,6.664,2.23a18.77,18.77,0,0,1,8.106,3.856q2.885,2.571,2.886,7.5a9.9,9.9,0,0,1-3.7,8q-3.7,3.07-9.733,3.07a22.525,22.525,0,0,1-15.688-6.454l4.88-5.981q5.928,5.194,10.966,5.194a5.755,5.755,0,0,0,3.542-.97,3.116,3.116,0,0,0,1.285-2.624,3.057,3.057,0,0,0-1.364-2.623,17.817,17.817,0,0,0-5.4-1.968q-6.4-1.521-9.365-3.961t-2.965-7.66a9.494,9.494,0,0,1,3.752-8.054,15.093,15.093,0,0,1,9.366-2.833,22.534,22.534,0,0,1,7.345,1.259,19.687,19.687,0,0,1,6.4,3.568l-4.145,5.982a16.151,16.151,0,0,0-9.864-3.62A4.934,4.934,0,0,0,428.118,359.259Z" transform="translate(-336.916 -351.1)"/><path class="a" d="M529.848,390l-3.41-7.922H511.064L507.654,390h-8.71l15.846-36.675h7.923L538.558,390Zm-11.071-25.762-4.617,10.651h9.182Z" transform="translate(-391.944 -352.489)"/><path class="a" d="M618.917,359.259a3.163,3.163,0,0,0-1.18,2.571,2.906,2.906,0,0,0,1.443,2.545q1.443.944,6.664,2.23a18.77,18.77,0,0,1,8.106,3.856q2.885,2.571,2.886,7.5a9.9,9.9,0,0,1-3.7,8q-3.7,3.07-9.733,3.07a22.526,22.526,0,0,1-15.688-6.454l4.88-5.981q5.928,5.194,10.966,5.194a5.754,5.754,0,0,0,3.541-.97,3.116,3.116,0,0,0,1.285-2.624,3.057,3.057,0,0,0-1.364-2.623,17.817,17.817,0,0,0-5.4-1.968q-6.4-1.521-9.366-3.961t-2.965-7.66a9.494,9.494,0,0,1,3.752-8.054,15.093,15.093,0,0,1,9.366-2.833,22.534,22.534,0,0,1,7.345,1.259,19.684,19.684,0,0,1,6.4,3.568l-4.145,5.982a16.151,16.151,0,0,0-9.864-3.62A4.934,4.934,0,0,0,618.917,359.259Z" transform="translate(-463.715 -351.1)"/><path class="a" d="M730.033,375.5l6.506-21.092h8.553l6.453,21.092,7.293-21.092h8.867l-12.8,36.675h-6.086l-8.028-25.5-7.975,25.5h-6.086l-12.8-36.675h8.867Z" transform="translate(-536.478 -353.162)"/><path class="a" d="M868.237,354.408h8.185v36.675h-8.185Z" transform="translate(-636.655 -353.162)"/><path class="a" d="M939.572,354.408h8.185v36.675h-8.185L922.1,368.1v22.981h-8.185V354.408h7.66l18,23.611Z" transform="translate(-671.125 -353.162)"/></g></g><path class="b" d="M1094.118,342.907v24.333a30.142,30.142,0,0,0-15.156-5.438q-1.129-.086-2.28-.085c-.718,0-1.431.026-2.136.074a30.165,30.165,0,0,0-15.267,5.424V343.052l4.416-2.55v19.41a34.454,34.454,0,0,1,10.851-2.456V334.238l2.278-1.316,2.138,1.235v23.306a34.439,34.439,0,0,1,10.74,2.45V340.358Z" transform="translate(-1005.724 -296.83)"/><path class="c" d="M1084.568,318.549l-4.179-2.413-4.416-2.549-4.048-2.338-4.416-2.549-.029-.017h0l-2.246-1.3-2.167-1.252-2.248,1.3-2.167,1.251h0l-4.412,2.549-4.269,2.465-4.416,2.549-4.126,2.384-4.416,2.547V366.7a25.878,25.878,0,0,0,4.416,14.5,26.146,26.146,0,0,0,4.126,4.764c.049.046.1.09.148.132a25.865,25.865,0,0,0,4.267,3.1v-4.57c-.009-.19-.013-.381-.013-.575,0-.031,0-.062,0-.093,0-.159,0-.321.011-.48a12.991,12.991,0,0,1,2.813-7.525q.088-.11.176-.214c-.11.22-.212.449-.3.68a.173.173,0,0,0-.007.02,13.007,13.007,0,0,0-.427,3.315c0,.214.005.431.015.643a12.881,12.881,0,0,0,.257,2v0a12.914,12.914,0,0,0,1.554,4h0a13.057,13.057,0,0,0,6.774,5.594,12.54,12.54,0,0,0,2.206.581h0a12.468,12.468,0,0,0,2.208-.581,13.007,13.007,0,0,0,6.794-5.629h0a12.954,12.954,0,0,0,1.539-3.985.016.016,0,0,0,0-.009,12.879,12.879,0,0,0,.251-2.071c.009-.183.013-.368.013-.553a12.962,12.962,0,0,0-.423-3.3.006.006,0,0,0,0,0c-.048-.126-.1-.253-.156-.378.029.037.057.073.086.112a13.018,13.018,0,0,1,2.5,5.869c.033.277.139,2.574.139,2.574v4.6a25.9,25.9,0,0,0,4.174-3q.124-.1.242-.214a26.159,26.159,0,0,0,4.179-4.812,25.878,25.878,0,0,0,4.416-14.5V321.1Zm0,48.217a21.463,21.463,0,0,1-4.179,12.763c-.171.235-.346.464-.53.691a17.165,17.165,0,0,0-1.851-4.771,17.425,17.425,0,0,0-1.5-2.21q-.259-.327-.537-.642a17.307,17.307,0,0,0-10.741-5.757v5.2a8.781,8.781,0,0,1-1.125,15.719,9.015,9.015,0,0,1-1.083.358,8.776,8.776,0,0,1-2.208-16.077v-5.228a17.309,17.309,0,0,0-10.732,5.557c-.04.046-.081.09-.119.136a17.308,17.308,0,0,0-3.937,7.582c-.162-.211-.323-.421-.478-.637a21.476,21.476,0,0,1-4.126-12.689v-4.53h4.559a21.57,21.57,0,0,1,3.983-3.932q.206-.159.418-.31a21.428,21.428,0,0,1,10.433-3.959,21.336,21.336,0,0,1,4.416.005,21.414,21.414,0,0,1,10.378,3.954c.122.088.244.176.363.268a21.61,21.61,0,0,1,4.038,3.974h4.557Zm-2.3-8.771q-.893-.984-1.882-1.876a25.883,25.883,0,0,0-15.157-6.582q-1.1-.1-2.235-.1-1.1,0-2.181.092a25.9,25.9,0,0,0-15.266,6.635c-.637.579-1.248,1.191-1.829,1.829h-2.3V323.726l4.126-2.382,4.416-2.549,8.682-5.013,2.169-1.253,2.247-1.3v0l.029.018h0l2.138,1.235,2.278,1.314,8.464,4.887v0l4.416,2.549,4.179,2.413v34.346Z" transform="translate(-991.843 -280.134)"/></g></svg>